# File created by Blade
# Date/Time:  Tue Sep 30 19:09:10 2014
#---------------------------------------------------------
:version 1.10
:name HOM
:units
  mass 1.0
  length 1.000000
  angle deg
:documentation
     Acclaim Skeleton File
:root
   axis xyz
   order TX TY TZ RX RY RZ
   position 0.000000 0.000000 0.000000
   orientation 0 0 0
:bonedata
   begin
      id 1
      name Spine_dum
      direction 0.000000 1.000000 0.000000
      length 7.508948
      axis 0.0 0.0 0.0 xyz
   end
   begin
      id 2
      name LeftUpLeg_dum
      direction 1.000000 0.000000 0.000000
      length 3.000560
      axis 0.0 0.0 0.0 xyz
   end
   begin
      id 3
      name RightUpLeg_dum
      direction -1.000000 0.000000 0.000000
      length 3.000560
      axis 0.0 0.0 0.0 xyz
   end
   begin
      id 4
      name Spine
      direction 0.000000 1.000000 0.000000
      length 0.000000
      axis 0.0 0.0 0.0 xyz
      dof rx ry rz
   end
   begin
      id 5
      name Spine_dum1
      direction 0.000000 1.000000 0.000000
      length 13.861154
      axis 0.0 0.0 0.0 xyz
   end
   begin
      id 6
      name Spine_dum2
      direction 0.000000 1.000000 0.000000
      length 8.204781
      axis 0.0 0.0 0.0 xyz
   end
   begin
      id 7
      name Spine_dum3
      direction 0.000000 1.000000 0.000000
      length 8.204781
      axis 0.0 0.0 0.0 xyz
   end
   begin
      id 8
      name Head
      direction 0.000000 1.000000 0.000000
      length 4.527550
      axis 0.0 0.0 0.0 xyz
      dof rx ry rz
   end
   begin
      id 9
      name LeftShoulder
      direction 1.000000 0.000000 0.000000
      length 6.635956
      axis 0.0 0.0 -90.0 xyz
      dof rx ry rz
   end
   begin
      id 10
      name LeftArm
      direction 1.000000 0.000000 0.000000
      length 10.274218
      axis 0.0 0.0 -90.0 xyz
      dof rx ry rz
   end
   begin
      id 11
      name LeftForeArm
      direction 1.000000 0.000000 0.000000
      length 8.522147
      axis 0.0 0.0 -90.0 xyz
      dof ry rz rx
   end
   begin
      id 12
      name LeftHand
      direction 0.000000 0.000000 0.000000
      length 0.000000
      axis 0.0 0.0 -90.0 xyz
      dof rx ry rz
   end
   begin
      id 13
      name LeftHand_dum1
      direction 0.000000 0.000000 0.000000
      length 0.000000
      axis 0.0 0.0 -90.0 xyz
   end
   begin
      id 14
      name LeftHand_dum2
      direction 1.000000 0.000000 0.000000
      length 3.937000
      axis 0.0 0.0 -90.0 xyz
   end
   begin
      id 15
      name LeftHandThumb1
      direction 0.000000 0.000000 1.000000
      length 3.937000
      axis 0.0 0.0 -90.0 xyz
      dof rx rz ry
   end
   begin
      id 16
      name RightShoulder
      direction -1.000000 0.000000 0.000000
      length 6.635956
      axis 0.0 0.0 90.0 xyz
      dof rx ry rz
   end
   begin
      id 17
      name RightArm
      direction -1.000000 0.000000 0.000000
      length 10.274218
      axis 0.0 0.0 90.0 xyz
      dof rx ry rz
   end
   begin
      id 18
      name RightForeArm
      direction -1.000000 0.000000 0.000000
      length 8.522147
      axis 0.0 0.0 90.0 xyz
      dof ry rz rx
   end
   begin
      id 19
      name RightHand
      direction 0.000000 0.000000 0.000000
      length 0.000000
      axis 0.0 0.0 90.0 xyz
      dof rx ry rz
   end
   begin
      id 20
      name RightHand_dum1
      direction 0.000000 0.000000 0.000000
      length 0.000000
      axis 0.0 0.0 90.0 xyz
   end
   begin
      id 21
      name RightHand_dum2
      direction -1.000000 0.000000 0.000000
      length 3.937000
      axis 0.0 0.0 90.0 xyz
   end
   begin
      id 22
      name RightHandThumb1
      direction 0.000000 0.000000 1.000000
      length 3.937000
      axis 0.0 0.0 90.0 xyz
      dof rx rz ry
   end
   begin
      id 23
      name LeftUpLeg
      direction 0.000000 -1.000000 0.000000
      length 16.490845
      axis 0.0 0.0 0.0 xyz
      dof rx ry rz
   end
   begin
      id 24
      name LeftLeg
      direction 0.000000 -1.000000 0.000000
      length 14.556576
      axis 0.0 0.0 0.0 xyz
      dof rx ry rz
   end
   begin
      id 25
      name LeftFoot
      direction 0.000000 -0.258819 0.965926
      length 4.831116
      axis 15.0 0.0 0.0 xyz
      dof rx ry rz
   end
   begin
      id 26
      name LeftToeBase
      direction 0.000000 0.000000 1.000000
      length 2.952750
      axis 0.0 0.0 0.0 xyz
      dof rx ry rz
   end
   begin
      id 27
      name RightUpLeg
      direction 0.000000 -1.000000 0.000000
      length 16.490845
      axis 0.0 0.0 0.0 xyz
      dof rx ry rz
   end
   begin
      id 28
      name RightLeg
      direction 0.000000 -1.000000 0.000000
      length 14.556576
      axis 0.0 0.0 0.0 xyz
      dof rx ry rz
   end
   begin
      id 29
      name RightFoot
      direction 0.000000 -0.258819 0.965926
      length 4.831116
      axis 15.0 0.0 0.0 xyz
      dof rx ry rz
   end
   begin
      id 30
      name RightToeBase
      direction 0.000000 0.000000 1.000000
      length 2.952750
      axis 0.0 0.0 0.0 xyz
      dof rx ry rz
   end
:hierarchy
   begin
      root Spine_dum LeftUpLeg_dum RightUpLeg_dum
      Spine_dum Spine
      LeftUpLeg_dum LeftUpLeg
      RightUpLeg_dum RightUpLeg
      Spine Spine_dum1 Spine_dum2 Spine_dum3
      Spine_dum1 Head
      Spine_dum2 LeftShoulder
      Spine_dum3 RightShoulder
      LeftShoulder LeftArm
      LeftArm LeftForeArm
      LeftForeArm LeftHand
      LeftHand LeftHand_dum1 LeftHand_dum2
      LeftHand_dum1 LeftHandThumb1
      RightShoulder RightArm
      RightArm RightForeArm
      RightForeArm RightHand
      RightHand RightHand_dum1 RightHand_dum2
      RightHand_dum1 RightHandThumb1
      LeftUpLeg LeftLeg
      LeftLeg LeftFoot
      LeftFoot LeftToeBase
      RightUpLeg RightLeg
      RightLeg RightFoot
      RightFoot RightToeBase
   end

# File created by Blade
# Date/Time:  Wed Sep 24 19:42:34 2014
# Frame Rate: 120.000 fps
#------------------------------------------------------
:FULLY-SPECIFIED
:DEGREES
1
root -4.711836 32.876661 -3.418444 12.007879 3.028674 -1.244781
Spine -11.992341 3.545505 0.146770
Head -10.015904 -3.305507 12.437307
LeftShoulder -16.034976 21.130259 26.877071
LeftArm 16.927252 -27.268827 -30.272443
LeftForeArm 14.554552 -0.000000 14.954453
LeftHand -27.799670 -0.000000 -4.228878
LeftHandThumb1 -26.253704 0.000000 33.147579
RightShoulder -22.666837 10.534372 -37.964534
RightArm -10.059371 8.611572 30.058462
RightForeArm -32.904333 0.000000 17.576239
RightHand -13.452451 -0.000000 11.975327
RightHandThumb1 -24.326973 -0.000000 -32.862282
LeftUpLeg -7.046624 3.708852 4.900686
LeftLeg -0.823991 -0.000000 0.000000
LeftFoot -9.875059 5.630526 -18.380539
LeftToeBase 9.997249 -0.000000 -0.000000
RightUpLeg -8.937810 -7.632624 0.062022
RightLeg 3.225202 -0.000000 -0.000000
RightFoot -8.119108 -6.228265 -16.350657
RightToeBase 1.286709 -0.000000 -0.000000
2
root -4.711613 32.876689 -3.417039 12.004787 3.031091 -1.241321
Spine -11.988730 3.538422 0.152424
Head -10.007742 -3.318025 12.437703
LeftShoulder -16.049262 21.138185 26.863876
LeftArm 16.936624 -27.275879 -30.259914
LeftForeArm 14.538449 -0.000000 14.942736
LeftHand -27.769548 -0.000000 -4.254903
LeftHandThumb1 -26.253704 0.000000 33.147579
RightShoulder -22.662722 10.532849 -37.957138
RightArm -10.036879 8.629272 30.051752
RightForeArm -32.878799 0.000000 17.542015
RightHand -13.410951 -0.000000 12.002394
RightHandThumb1 -24.326973 -0.000000 -32.862282
LeftUpLeg -7.039960 3.710327 4.898118
LeftLeg -0.828260 -0.000000 0.000000
LeftFoot -9.866530 5.617147 -18.384455
LeftToeBase 9.965747 -0.000000 -0.000000
RightUpLeg -8.929235 -7.628472 0.056261
RightLeg 3.221622 -0.000000 -0.000000
RightFoot -8.119253 -6.220005 -16.331494
RightToeBase 1.293103 -0.000000 -0.000000
3
root -4.711588 32.876317 -3.415402 12.003069 3.038958 -1.240339
Spine -11.990595 3.541080 0.151886
Head -9.984682 -3.314310 12.433255
LeftShoulder -16.044031 21.148516 26.878738
LeftArm 16.948141 -27.295428 -30.275639
LeftForeArm 14.530791 -0.000000 14.952922
LeftHand -27.793307 -0.000000 -4.310534
LeftHandThumb1 -26.253704 0.000000 33.147579
RightShoulder -22.666448 10.525537 -37.947946
RightArm -10.035363 8.629457 30.043152
RightForeArm -32.883391 -0.000000 17.540572
RightHand -13.395486 0.000000 12.024803
RightHandThumb1 -24.326973 -0.000000 -32.862282
LeftUpLeg -7.037157 3.715408 4.896373
LeftLeg -0.827654 -0.000000 0.000000
LeftFoot -9.864951 5.620687 -18.345576
LeftToeBase 10.000850 -0.000000 -0.000000
RightUpLeg -8.925186 -7.646576 0.058891
RightLeg 3.222466 -0.000000 -0.000000
RightFoot -8.120022 -6.221372 -16.334469
RightToeBase 1.269804 -0.000000 -0.000000
4
root -4.711469 32.876300 -3.414651 12.003283 3.037192 -1.240671
Spine -11.987927 3.552439 0.155073
Head -9.981147 -3.331222 12.425117
LeftShoulder -16.039301 21.147523 26.882205
LeftArm 16.945774 -27.318518 -30.280236
LeftForeArm 14.521748 -0.000000 14.963619
LeftHand -27.799430 0.000000 -4.353988
LeftHandThumb1 -26.253704 0.000000 33.147579
RightShoulder -22.672816 10.527090 -37.942664
RightArm -10.036618 8.603579 30.038018
RightForeArm -32.857008 -0.000000 17.544541
RightHand -13.431645 -0.000000 12.000582
RightHandThumb1 -24.326973 -0.000000 -32.862282
LeftUpLeg -7.035608 3.712933 4.897925
LeftLeg -0.826289 -0.000000 0.000000
LeftFoot -9.871630 5.609059 -18.391423
LeftToeBase 10.010629 -0.000000 -0.000000
RightUpLeg -8.923154 -7.630146 0.056293
RightLeg 3.222795 -0.000000 -0.000000
RightFoot -8.131920 -6.233273 -16.340479
RightToeBase 1.311595 -0.000000 -0.000000
5
root -4.710918 32.876337 -3.413137 12.002633 3.038462 -1.236045
Spine -11.987180 3.543934 0.159923
Head -9.964316 -3.319541 12.414893
LeftShoulder -16.052035 21.162292 26.870311
LeftArm 16.950216 -27.335773 -30.278579
LeftForeArm 14.540149 -0.000000 14.972504
LeftHand -27.810829 -0.000000 -4.376835
LeftHandThumb1 -26.253704 0.000000 33.147579
RightShoulder -22.676027 10.523558 -37.943183
RightArm -10.011246 8.621275 30.046374
RightForeArm -32.851419 -0.000000 17.515438
RightHand -13.283058 -0.000000 12.083732
RightHandThumb1 -24.326973 -0.000000 -32.862282
LeftUpLeg -7.032193 3.709121 4.894167
LeftLeg -0.826091 -0.000000 0.000000
LeftFoot -9.873813 5.606306 -18.365920
LeftToeBase 9.990433 -0.000000 -0.000000
RightUpLeg -8.914772 -7.635540 0.050912
RightLeg 3.213480 -0.000000 -0.000000
RightFoot -8.130807 -6.226437 -16.356233
RightToeBase 1.332438 -0.000000 -0.000000
6
root -4.707416 32.875861 -3.407498 11.988653 2.984541 -1.238108
Spine -11.985322 3.596497 0.166851
Head -9.939061 -3.319554 12.398188
LeftShoulder -16.058558 21.158167 26.866747
LeftArm 16.951374 -27.305464 -30.271964
LeftForeArm 14.528748 0.000000 14.961525
LeftHand -27.799558 0.000000 -4.371514
LeftHandThumb1 -26.253704 0.000000 33.147579
RightShoulder -22.669204 10.518297 -37.937913
RightArm -10.000176 8.636863 30.032553
RightForeArm -32.863036 0.000000 17.511244
RightHand -13.260260 -0.000000 12.113505
RightHandThumb1 -24.326973 -0.000000 -32.862282
LeftUpLeg -6.984282 3.768302 4.878751
LeftLeg -0.856348 -0.000000 0.000000
LeftFoot -9.868084 5.614285 -18.337624
LeftToeBase 9.992847 -0.000000 -0.000000
RightUpLeg -8.895385 -7.579536 0.032560
RightLeg 3.213932 -0.000000 -0.000000
RightFoot -8.125932 -6.224480 -16.310182
RightToeBase 1.258376 -0.000000 -0.000000
7
root -4.707029 32.875628 -3.406834 11.992774 2.983838 -1.241322
Spine -11.989616 3.611348 0.175834
Head -9.931407 -3.322677 12.393898
LeftShoulder -16.046111 21.162591 26.870400
LeftArm 16.949316 -27.292570 -30.271736
LeftForeArm 14.533159 -0.000000 14.971490
LeftHand -27.812029 -0.000000 -4.350341
LeftHandThumb1 -26.253704 0.000000 33.147579
RightShoulder -22.686517 10.506908 -37.954385
RightArm -9.988196 8.622819 30.058249
RightForeArm -32.843624 0.000000 17.506214
RightHand -13.246328 -0.000000 12.036382
RightHandThumb1 -24.326973 -0.000000 -32.862282
LeftUpLeg -6.988750 3.778250 4.879496
LeftLeg -0.850685 -0.000000 0.000000
LeftFoot -9.883062 5.597970 -18.354760
LeftToeBase 10.052149 -0.000000 -0.000000
RightUpLeg -8.900227 -7.567998 0.033326
RightLeg 3.219877 -0.000000 -0.000000
RightFoot -8.133393 -6.245010 -16.342318
RightToeBase 1.328859 -0.000000 -0.000000
8
root -4.706695 32.875170 -3.405577 11.994229 2.990873 -1.237450
Spine -11.986143 3.604409 0.182830
Head -9.929307 -3.304862 12.376143
LeftShoulder -16.034799 21.138989 26.889084
LeftArm 16.934813 -27.237972 -30.254643
LeftForeArm 14.484004 -0.000000 14.895075
LeftHand -27.651364 -0.000000 -4.366792
LeftHandThumb1 -26.253704 0.000000 33.147579
RightShoulder -22.686238 10.520026 -37.982926
RightArm -10.012898 8.629335 30.087493
RightForeArm -32.884245 -0.000000 17.505390
RightHand -13.160012 -0.000000 12.035310
RightHandThumb1 -24.326973 -0.000000 -32.862282
LeftUpLeg -6.990054 3.778554 4.875304
LeftLeg -0.852453 -0.000000 0.000000
LeftFoot -9.864838 5.599158 -18.337592
LeftToeBase 9.932072 -0.000000 -0.000000
RightUpLeg -8.895669 -7.576072 0.029967
RightLeg 3.213494 -0.000000 -0.000000
RightFoot -8.132714 -6.237225 -16.342106
RightToeBase 1.303173 -0.000000 -0.000000
9
root -4.707080 32.875220 -3.405344 12.001410 2.992617 -1.238627
Spine -11.991958 3.610185 0.187620
Head -9.925072 -3.305638 12.384383
LeftShoulder -16.023488 21.135400 26.895801
LeftArm 16.922811 -27.223672 -30.252651
LeftForeArm 14.482432 -0.000000 14.905959
LeftHand -27.656021 -0.000000 -4.363340
LeftHandThumb1 -26.253704 0.000000 33.147579
RightShoulder -22.688528 10.529955 -37.987216
RightArm -10.027388 8.617957 30.092912
RightForeArm -32.888168 -0.000000 17.512492
RightHand -13.138618 -0.000000 12.024212
RightHandThumb1 -24.326973 -0.000000 -32.862282
LeftUpLeg -6.997778 3.774259 4.878564
LeftLeg -0.847510 -0.000000 0.000000
LeftFoot -9.877649 5.589022 -18.352700
LeftToeBase 9.982209 -0.000000 -0.000000
RightUpLeg -8.903274 -7.573610 0.032030
RightLeg 3.214012 -0.000000 -0.000000
RightFoot -8.135204 -6.235210 -16.314658
RightToeBase 1.271931 -0.000000 -0.000000
10
root -4.706209 32.875448 -3.404362 12.002534 2.993014 -1.230990
Spine -11.992543 3.601421 0.182753
Head -9.913673 -3.289271 12.403161
LeftShoulder -16.026267 21.147938 26.886532
LeftArm 16.921535 -27.233679 -30.246223
LeftForeArm 14.483119 -0.000000 14.913946
LeftHand -27.673438 -0.000000 -4.376674
LeftHandThumb1 -26.253704 0.000000 33.147579
RightShoulder -22.679643 10.527211 -37.979205
RightArm -10.012160 8.695769 30.101469
RightForeArm -32.961922 0.000000 17.485477
RightHand -13.075896 -0.000000 12.084374
RightHandThumb1 -24.326973 -0.000000 -32.862282
LeftUpLeg -6.998626 3.765260 4.870302
LeftLeg -0.843963 -0.000000 0.000000
LeftFoot -9.878903 5.599739 -18.344576
LeftToeBase 10.001208 -0.000000 -0.000000
RightUpLeg -8.904520 -7.575375 0.023903
RightLeg 3.220166 -0.000000 -0.000000
RightFoot -8.144019 -6.244740 -16.319915
RightToeBase 1.290860 -0.000000 -0.000000
